<?xml version="1.0" standalone="no"?>
<!DOCTYPE svg PUBLIC "-//W3C//DTD SVG 20010904//EN"
 "http://www.w3.org/TR/2001/REC-SVG-20010904/DTD/svg10.dtd">
<svg version="1.0" xmlns="http://www.w3.org/2000/svg"
 width="64.000000pt" height="64.000000pt" viewBox="0 0 64.000000 64.000000"
 preserveAspectRatio="xMidYMid meet">

<g transform="translate(0.000000,64.000000) scale(0.100000,-0.100000)"
fill="#000000" stroke="none">
<path d="M215 504 c-78 -8 -80 -10 -118 -89 -32 -65 -40 -75 -63 -75 -51 0
-18 -25 42 -31 76 -9 412 -9 488 0 60 6 93 31 41 31 -22 0 -30 9 -56 64 -43
92 -46 94 -179 99 -63 3 -133 3 -155 1z m267 -40 c13 -9 59 -116 52 -123 -8
-8 -421 -8 -429 1 -4 3 6 33 22 65 28 57 29 58 78 65 54 7 262 1 277 -8z"/>
<path d="M33 262 c-33 -21 -43 -117 -18 -166 8 -15 15 -38 15 -50 0 -33 19
-46 70 -46 51 0 70 13 70 47 0 23 0 23 150 23 150 0 150 0 150 -23 0 -34 19
-47 70 -47 51 0 70 13 70 46 0 12 7 35 15 50 25 49 15 145 -18 166 -20 13 -65
9 -81 -8 -20 -20 -20 -68 0 -88 8 -9 29 -16 45 -16 26 0 30 -3 27 -22 l-3 -23
-275 0 -275 0 -3 23 c-3 19 1 22 27 22 37 0 61 23 61 60 0 16 -7 36 -16 44
-16 17 -61 21 -81 8z m62 -52 c0 -18 -6 -26 -23 -28 -13 -2 -25 3 -28 12 -10
26 4 48 28 44 17 -2 23 -10 23 -28z m500 0 c0 -18 -6 -26 -23 -28 -13 -2 -25
3 -28 12 -10 26 4 48 28 44 17 -2 23 -10 23 -28z m-465 -160 c0 -16 -7 -20
-30 -20 -23 0 -30 4 -30 20 0 16 7 20 30 20 23 0 30 -4 30 -20z m440 0 c0 -16
-7 -20 -30 -20 -23 0 -30 4 -30 20 0 16 7 20 30 20 23 0 30 -4 30 -20z"/>
<path d="M203 168 c5 -18 229 -18 235 0 3 9 -25 12 -118 12 -93 0 -121 -3
-117 -12z"/>
</g>
</svg>
